<svg xmlns="http://www.w3.org/2000/svg" width="23.962" height="23.985" viewBox="0 0 23.962 23.985" fill="none">
  <g id="comment" transform="translate(0.001 0.024)">
    <path id="Path_3" data-name="Path 3" d="M23.961,11.229A11.992,11.992,0,1,0,12,23.961h6.972a5,5,0,0,0,4.992-4.992Zm-2,7.74a3,3,0,0,1-3,3H12a10.025,10.025,0,0,1-7.464-3.338,9.9,9.9,0,0,1-2.472-7.8A10.027,10.027,0,0,1,10.7,2.079,10.547,10.547,0,0,1,12,2a9.9,9.9,0,0,1,6.369,2.3,10.025,10.025,0,0,1,3.594,7.031Z" transform="translate(0 0)" />
    <path id="Path_4" data-name="Path 4" d="M8,9h3.993a1,1,0,1,0,0-2H8A1,1,0,0,0,8,9Z" transform="translate(-0.011 -0.011)" />
    <path id="Path_5" data-name="Path 5" d="M15.985,11H8a1,1,0,0,0,0,2h7.987a1,1,0,0,0,0-2Z" transform="translate(-0.011 -0.018)" />
    <path id="Path_6" data-name="Path 6" d="M15.985,15H8a1,1,0,0,0,0,2h7.987a1,1,0,0,0,0-2Z" transform="translate(-0.011 -0.024)" />
  </g>
</svg>
