<svg xmlns="http://www.w3.org/2000/svg" width="152.001" height="195.598" viewBox="0 0 142.001 135.598"><path d="M82.362,186.353h-.006a24.981,24.981,0,0,1-9.722-1.872,24.332,24.332,0,0,1-7.726-5.246c-4.241-4.216-7.674-10.372-10.2-18.3-4.821-6.2-8.178-15.743-9.977-28.351a201.881,201.881,0,0,1-1.348-35.867,369.6,369.6,0,0,1,4.515-43.839l.03-.171.2-.036a365.584,365.584,0,0,1,37.045-1.916c4,0,7.927.074,11.678.22H97c20.964,0,38.634,1.725,52.518,5.127,8.654,2.121,15.839,4.916,21.355,8.309a36.231,36.231,0,0,1,7.657,6.161,25.041,25.041,0,0,1,4.943,7.722,25.71,25.71,0,0,1,1.472,12.673,48.155,48.155,0,0,1-5.223,15.86,112.256,112.256,0,0,1-13.027,19.394,249.242,249.242,0,0,1-21.969,23.3c-6.834,6.463-13.4,12.153-19.525,16.911a146.321,146.321,0,0,1-16.763,11.419,75.222,75.222,0,0,1-14.209,6.465A39.22,39.22,0,0,1,82.362,186.353ZM55.585,162.012c2.461,7.258,5.713,12.929,9.676,16.868a23.835,23.835,0,0,0,7.567,5.14,24.485,24.485,0,0,0,9.528,1.833h.006a38.724,38.724,0,0,0,11.712-2.016,74.725,74.725,0,0,0,14.113-6.422,145.826,145.826,0,0,0,16.7-11.38c6.109-4.748,12.666-10.428,19.488-16.88A248.745,248.745,0,0,0,166.3,125.906,111.762,111.762,0,0,0,179.274,106.6a47.664,47.664,0,0,0,5.172-15.692,25.216,25.216,0,0,0-1.44-12.429,24.544,24.544,0,0,0-4.846-7.568,35.734,35.734,0,0,0-7.552-6.074C165.136,61.472,158,58.7,149.4,56.588c-11.4-2.794-25.376-4.454-41.641-4.953a138.586,138.586,0,0,1,29.108,5.16c13.192,4.1,21.419,10.279,24.453,18.355,2.6,6.927,1.4,15.342-3.587,25.013-5.52,10.715-15.816,23.239-30.6,37.224-11.791,11.152-22.52,19.529-31.891,24.9-8.658,4.96-16.37,7.475-22.923,7.475A21.227,21.227,0,0,1,55.585,162.012Zm-.432-1.315a20.932,20.932,0,0,0,17.159,8.561c6.464,0,14.093-2.493,22.675-7.409,9.336-5.349,20.034-13.7,31.8-24.826,14.745-13.946,25.007-26.425,30.5-37.09,4.915-9.54,6.113-17.819,3.563-24.608-2.977-7.924-11.1-14-24.133-18.053-10.35-3.219-23.769-5.17-39.879-5.8a414.676,414.676,0,0,0-41.776,2.158c-.329,1.92-3.113,18.529-4.521,39.056C49.161,112.761,48.845,140.848,55.154,160.7Zm-6.8-107.55a370.465,370.465,0,0,0-4.476,43.589,201.389,201.389,0,0,0,1.343,35.776c1.68,11.772,4.718,20.838,9.038,26.979-5.9-19.83-5.569-47.175-4.22-66.838,1.492-21.754,4.529-39.12,4.56-39.292l.032-.183.185-.021c.144-.017,11.29-1.29,26.881-1.883C64.288,51.456,50.176,52.948,48.355,53.148Zm22.432,93.494h0a14.969,14.969,0,0,1-6.633-1.466,15.585,15.585,0,0,1-5.076-4.062c-3.478-4.148-5.909-10.675-7.226-19.4a135.655,135.655,0,0,1-1.04-24.878,254.038,254.038,0,0,1,3.132-30.621l.031-.173.2-.034A248.625,248.625,0,0,1,79.583,64.7c12.761,0,23.5,1.052,31.9,3.127,11.12,2.743,18,7.267,20.461,13.444a15.62,15.62,0,0,1,.894,7.7,29.173,29.173,0,0,1-3.166,9.61,67.882,67.882,0,0,1-7.882,11.727,150.611,150.611,0,0,1-13.28,14.075c-8.108,7.665-15.488,13.422-21.934,17.113C80.618,144.911,75.3,146.642,70.786,146.642ZM54.4,66.485a254.639,254.639,0,0,0-3.093,30.369,135.165,135.165,0,0,0,1.035,24.785c1.3,8.633,3.7,15.077,7.115,19.154a15.089,15.089,0,0,0,4.912,3.934,14.474,14.474,0,0,0,6.413,1.415v0c4.429,0,9.66-1.709,15.546-5.08,6.412-3.671,13.759-9.405,21.839-17.043a150.114,150.114,0,0,0,13.236-14.027,67.388,67.388,0,0,0,7.824-11.639,28.681,28.681,0,0,0,3.115-9.442,15.127,15.127,0,0,0-.862-7.457c-2.394-6.019-9.163-10.441-20.117-13.143C103,66.245,92.3,65.2,79.583,65.2A249.457,249.457,0,0,0,54.4,66.485Z" transform="translate(-43.156 -50.755)" fill='#C5A7CF'/></svg>