<svg xmlns="http://www.w3.org/2000/svg" width="198.994" height="199.178" viewBox="0 0 148.994 139.178"><path d="M137.945,151.274l-.183-.024c-.061-.009-5.892-.877-14.622-2.657-8.059-1.644-20.311-4.424-32.913-8.337h0l-.04-.01c-20.251-5.427-36.878-11.667-49.418-18.547-7.826-4.293-14.055-8.859-18.513-13.569a36.273,36.273,0,0,1-5.814-7.943,25.049,25.049,0,0,1-2.781-8.75,25.708,25.708,0,0,1,1.86-12.623,48.147,48.147,0,0,1,9.153-13.966A112.245,112.245,0,0,1,42.281,49.49,249.236,249.236,0,0,1,69.538,32.679a227.02,227.02,0,0,1,35.018-15.747c9.606-3.209,18.078-4.836,25.181-4.836a33.562,33.562,0,0,1,13.374,2.476,23.328,23.328,0,0,1,9.041,6.89A30.509,30.509,0,0,1,157.4,31.9a55.292,55.292,0,0,1,2.048,13.079c3.049,7.242,3.82,17.324,2.291,29.968a201.869,201.869,0,0,1-7.992,34.99,370.6,370.6,0,0,1-15.72,41.17ZM105,143.908c7.037,1.808,13.394,3.207,18.236,4.194,7.853,1.6,13.354,2.463,14.409,2.624a371.428,371.428,0,0,0,15.618-40.939,201.372,201.372,0,0,0,7.973-34.9c1.428-11.806.842-21.349-1.739-28.4.561,20.683-6.844,47.006-13.242,65.647-7.086,20.646-14.512,36.608-14.586,36.767l-.079.169-.184-.027C131.266,149.022,120.187,147.365,105,143.908Zm-14.632-4.131a415.177,415.177,0,0,0,40.926,8.744c.815-1.768,7.8-17.069,14.487-36.549C152.316,92.943,159.9,65.9,158.949,45.091c-3.867-9.1-11.49-13.722-22.656-13.722-12.813,0-30.532,6.065-52.664,18.026-17.855,9.65-31,19.044-39.071,27.922-7.219,7.941-10.522,15.627-9.818,22.845.822,8.423,7.088,16.392,18.625,23.684,9.151,5.785,21.587,11.14,36.962,15.916ZM129.738,12.6c-7.05,0-15.469,1.618-25.023,4.81A226.527,226.527,0,0,0,69.776,33.119,248.745,248.745,0,0,0,42.574,49.9,111.753,111.753,0,0,0,25.046,65.183,47.656,47.656,0,0,0,15.985,79a25.214,25.214,0,0,0-1.828,12.379,24.552,24.552,0,0,0,2.727,8.575,35.776,35.776,0,0,0,5.734,7.832c4.423,4.673,10.61,9.206,18.39,13.474,10.28,5.64,23.318,10.849,38.861,15.534A138.526,138.526,0,0,1,53.1,124.269C41.424,116.89,35.08,108.8,34.243,100.211c-.718-7.364,2.628-15.18,9.946-23.229,8.108-8.919,21.3-18.348,39.2-28.025,22.206-12,40-18.086,52.9-18.086,10.892,0,18.482,4.318,22.58,12.84a53.283,53.283,0,0,0-1.955-11.667,30.015,30.015,0,0,0-5.156-10.268,22.833,22.833,0,0,0-8.849-6.744A33.069,33.069,0,0,0,129.738,12.6Zm5.83,124.223-.188-.031a247.465,247.465,0,0,1-33.876-7.935c-10-3.179-18.146-6.726-24.216-10.542a38.614,38.614,0,0,1-8.653-7.121,17.711,17.711,0,0,1-4.317-8.471,15.159,15.159,0,0,1,.758-7.8,27.605,27.605,0,0,1,5.363-8.641,65.538,65.538,0,0,1,10.712-9.51A149.042,149.042,0,0,1,97.991,66.338a137.164,137.164,0,0,1,21.16-9.515A49.4,49.4,0,0,1,134.388,53.9a19.672,19.672,0,0,1,8.918,1.88,14.3,14.3,0,0,1,5.669,5.178c2.912,4.576,4.018,11.412,3.285,20.32a125.257,125.257,0,0,1-5.189,25.058,254.147,254.147,0,0,1-11.423,30.315ZM134.388,54.4a48.91,48.91,0,0,0-15.078,2.9,136.67,136.67,0,0,0-21.081,9.481A148.543,148.543,0,0,0,81.445,77.17,65.044,65.044,0,0,0,70.815,86.6a27.114,27.114,0,0,0-5.269,8.481,14.666,14.666,0,0,0-.736,7.548,17.222,17.222,0,0,0,4.2,8.23,38.12,38.12,0,0,0,8.541,7.025c6.035,3.794,14.144,7.323,24.1,10.489a247.368,247.368,0,0,0,33.619,7.889,254.427,254.427,0,0,0,11.319-30.078,124.767,124.767,0,0,0,5.169-24.955c.724-8.8-.356-15.529-3.208-20.01a13.809,13.809,0,0,0-5.473-5A19.182,19.182,0,0,0,134.388,54.4Z" transform="translate(-13.505 -12.095)" fill='#C5A7CF'/></svg>