<svg xmlns="http://www.w3.org/2000/svg" width="25" height="24.985" viewBox="0 0 25 24.985" fill="none" >
  <path id="home" d="M24.084,9.446l-7.9-7.9a5.217,5.217,0,0,0-7.367,0l-7.9,7.9A3.1,3.1,0,0,0,0,11.655V21.881a3.125,3.125,0,0,0,3.125,3.125h18.75A3.125,3.125,0,0,0,25,21.881V11.655A3.1,3.1,0,0,0,24.084,9.446ZM15.625,22.923H9.375v-4.1a3.125,3.125,0,1,1,6.25,0Zm7.292-1.042a1.042,1.042,0,0,1-1.042,1.042H17.708v-4.1a5.208,5.208,0,0,0-10.417,0v4.1H3.125a1.042,1.042,0,0,1-1.042-1.042V11.655a1.05,1.05,0,0,1,.305-.736l7.9-7.9a3.133,3.133,0,0,1,4.421,0l7.9,7.9a1.05,1.05,0,0,1,.305.733Z" transform="translate(0 -0.021)" />
</svg>
