<svg id="_01_align_center" data-name="01 align center" xmlns="http://www.w3.org/2000/svg" width="24" height="24" viewBox="0 0 24 24">
  <path id="Path_1173" data-name="Path 1173" d="M22,0H13V2h7.586L0,22.586,1.414,24,22,3.414V11h2V2A2,2,0,0,0,22,0Z" fill="#b7b7b7"/>
  <path id="Path_1174" data-name="Path 1174" d="M6,10A4,4,0,1,0,2,6,4,4,0,0,0,6,10ZM6,4A2,2,0,1,1,4,6,2,2,0,0,1,6,4Z" fill="#b7b7b7"/>
  <path id="Path_1175" data-name="Path 1175" d="M18,14a4,4,0,1,0,4,4A4,4,0,0,0,18,14Zm0,6a2,2,0,1,1,2-2A2,2,0,0,1,18,20Z" fill="#b7b7b7"/>
</svg>
